<svg width="235" height="48" viewBox="0 0 235 48" fill="none" xmlns="http://www.w3.org/2000/svg">
<path d="M0 14.8992L14.9949 4.67694V48H0V14.8992Z" fill="#03C5AA"/>
<rect y="32.4923" width="35.7231" height="15.5077" fill="#014E5B"/>
<rect x="28.0051" y="14.5231" width="14.9949" height="33.4769" fill="#008386"/>
<path d="M14.9949 4.51007L21.2422 0L43 11.4685V19.2H14.9949V4.51007Z" fill="#00B596"/>
<path d="M67.32 13C68.0667 13 68.44 13.36 68.44 14.08L68.28 23.68C70.28 24.0267 72.1867 24.2 74 24.2C75.8933 24.2 77 24.1867 77.32 24.16C77.2667 21.44 77.24 19.4933 77.24 18.32V14.52C77.24 13.9067 77.2667 13.4933 77.32 13.28C77.4 13.0667 77.5867 12.8933 77.88 12.76C78.2 12.6 78.6133 12.52 79.12 12.52C79.92 12.52 80.32 13 80.32 13.96V28.12C80.32 30.6533 80.2533 33.88 80.12 37.8C80.0667 38.5733 79.4133 38.96 78.16 38.96C77.52 38.96 77.2 38.5733 77.2 37.8L77.36 27.2C76.4533 27.2533 75.5733 27.28 74.72 27.28C72.56 27.28 70.4133 27.12 68.28 26.8C68.28 30.32 68.44 34 68.76 37.84C68.7867 38.2667 68.6 38.6 68.2 38.84C67.7733 39.0533 67.2667 39.16 66.68 39.16C66.0933 39.16 65.7733 38.8533 65.72 38.24C65.3733 34.5867 65.2 30.8533 65.2 27.04L65.44 14.56C65.44 14.0533 65.6267 13.6667 66 13.4C66.3733 13.1333 66.8133 13 67.32 13ZM85.8309 15.96C87.5643 13.5867 90.2709 12.4 93.9509 12.4C95.8176 12.4 97.4043 13 98.7109 14.2C101.271 16.4667 102.551 20.0933 102.551 25.08C102.551 30.0133 101.138 33.8933 98.3109 36.72C96.7909 38.16 95.0976 38.9333 93.2309 39.04C90.6976 39.04 88.7243 38.1733 87.3109 36.44C85.9776 34.7867 84.9909 32.9067 84.3509 30.8C83.7109 28.6933 83.3909 26.56 83.3909 24.4C83.3909 20.96 84.2043 18.1467 85.8309 15.96ZM97.8709 18.04C97.0176 16.4933 95.6176 15.72 93.6709 15.72C90.0976 15.72 87.8709 17.4133 86.9909 20.8C86.7243 21.7333 86.5909 22.7867 86.5909 23.96C86.5909 25.6667 86.8576 27.4133 87.3909 29.2C88.1109 31.7067 89.1776 33.4667 90.5909 34.48C91.4176 35.12 92.4176 35.44 93.5909 35.44C94.7909 35.44 95.8443 34.92 96.7509 33.88C98.3776 32.04 99.1909 29.0533 99.1909 24.92C99.1909 21.88 98.7509 19.5867 97.8709 18.04ZM122.498 14.12C122.898 12.9467 123.551 12.36 124.458 12.36C125.071 12.36 125.484 12.8267 125.698 13.76C125.831 18.6133 125.898 23.36 125.898 28C125.898 32.8533 125.871 35.8133 125.818 36.88C125.764 37.7067 125.591 38.28 125.298 38.6C125.004 38.8933 124.471 39.04 123.698 39.04C123.004 39.04 122.658 38.6133 122.658 37.76V28.72C122.658 27.7867 122.631 26.28 122.578 24.2L122.498 21.28C121.564 22.8533 120.364 24.1333 118.898 25.12C117.431 26.1067 115.764 26.6 113.898 26.6C112.031 26.6 110.484 25.84 109.258 24.32C109.204 26.4533 109.178 28.3733 109.178 30.08L109.217 37.12C109.217 37.7333 109.004 38.2133 108.578 38.56C108.178 38.88 107.671 39.04 107.058 39.04C106.338 39.04 105.978 38.6 105.978 37.72C106.004 36.12 106.018 32.32 106.018 26.32V14.96C106.018 14.48 106.164 14.04 106.458 13.64C106.778 13.2133 107.138 13 107.538 13C107.991 13 108.378 13.12 108.698 13.36C109.044 13.6 109.231 13.9333 109.258 14.36C109.364 17.2133 109.831 19.3867 110.658 20.88C111.484 22.3733 112.511 23.12 113.738 23.12C114.858 23.12 115.858 22.9333 116.738 22.56C117.618 22.16 118.324 21.7067 118.858 21.2C119.418 20.6667 119.938 19.9467 120.418 19.04C121.111 17.7867 121.804 16.1467 122.498 14.12ZM130.087 33.92V31.12L129.927 25.24C129.553 25.0267 129.367 24.6667 129.367 24.16C129.367 23.7333 129.513 23.3333 129.807 22.96C129.7 20.5867 129.647 17.7733 129.647 14.52C129.807 13.88 130.047 13.4133 130.367 13.12C130.713 12.8267 131.207 12.64 131.847 12.56C135.367 12.72 139.18 12.8 143.287 12.8C144.3 13.0133 144.807 13.4533 144.807 14.12C144.807 15.24 143.713 15.8933 141.527 16.08C141.127 16.1067 140.487 16.12 139.607 16.12H137.007C136.633 16.12 135.233 16.0133 132.807 15.8C132.807 19.2933 132.86 21.5867 132.967 22.68C133.9 22.7067 136.62 22.72 141.127 22.72C142.087 22.9067 142.567 23.3467 142.567 24.04C142.567 24.7067 142.18 25.2267 141.407 25.6C141.247 25.68 141.1 25.7333 140.967 25.76L134.047 25.64C133.727 25.64 133.38 25.6667 133.007 25.72L133.167 32.6C133.167 34.12 133.127 35.2267 133.047 35.92L142.327 35.8C143.18 35.9333 143.607 36.2933 143.607 36.88C143.607 37.28 143.42 37.68 143.047 38.08C142.7 38.48 142.287 38.7333 141.807 38.84L131.567 39C130.953 39 130.527 38.8933 130.287 38.68C130.047 38.44 129.927 38.0533 129.927 37.52C130.033 36.8533 130.087 35.6533 130.087 33.92ZM158.601 14.28C160.334 13.1067 162.561 12.52 165.281 12.52C167.041 12.52 168.507 12.8133 169.681 13.4C170.907 13.9867 171.521 14.7333 171.521 15.64C171.521 16.04 171.414 16.3867 171.201 16.68C170.987 16.9733 170.694 17.12 170.321 17.12C169.921 17.12 169.094 16.8267 167.841 16.24C166.534 15.6267 165.361 15.32 164.321 15.32C163.254 15.32 162.174 15.6533 161.081 16.32C159.961 16.9867 159.401 17.8 159.401 18.76C159.401 20.0667 160.081 21.0267 161.441 21.64C162.534 22.12 163.987 22.5333 165.801 22.88C170.094 23.6533 172.241 26.0533 172.241 30.08C172.241 33.4667 171.214 35.9867 169.161 37.64C168.014 38.5467 166.387 39 164.281 39C162.174 39 160.094 38.4267 158.041 37.28C156.681 36.56 156.001 35.84 156.001 35.12C156.001 34.8533 156.121 34.56 156.361 34.24C156.601 33.92 156.907 33.6533 157.281 33.44C157.494 33.3333 157.707 33.28 157.921 33.28C158.134 33.28 158.281 33.3067 158.361 33.36C158.441 33.3867 158.987 33.64 160.001 34.12C161.014 34.6 161.561 34.8533 161.641 34.88C162.734 35.3067 163.787 35.52 164.801 35.52C165.787 35.52 166.734 35.04 167.641 34.08C168.574 33.0667 169.041 31.8667 169.041 30.48C169.041 28.6133 168.107 27.3067 166.241 26.56C165.307 26.1867 164.281 25.9067 163.161 25.72C160.707 25.2933 158.894 24.5733 157.721 23.56C156.574 22.52 156.001 21.0133 156.001 19.04C156.001 17.04 156.867 15.4533 158.601 14.28ZM173.52 13.68C173.867 13.3067 174.28 13.0933 174.76 13.04L190.96 12.8C191.733 13.04 192.12 13.4267 192.12 13.96C192.12 15.2933 191.573 15.96 190.48 15.96C188.24 15.96 186.12 16.0133 184.12 16.12C183.987 18.5467 183.92 20.56 183.92 22.16V23.52L184.08 37.56C184.08 38.4133 183.867 38.8933 183.44 39C183.147 39.1067 182.747 39.16 182.24 39.16C181.467 39.16 181.04 38.72 180.96 37.84C180.8 35.7867 180.72 31.96 180.72 26.36C180.72 20.7333 180.8 17.3467 180.96 16.2L178.48 16.24L174.4 16.2C174 16.2 173.667 16.08 173.4 15.84C173.16 15.5733 173.04 15.24 173.04 14.84C173.04 14.44 173.2 14.0533 173.52 13.68ZM198.311 16.04C199.458 13.7733 200.711 12.64 202.071 12.64C202.764 12.64 203.324 12.9333 203.751 13.52C204.231 14.1867 204.818 15.4 205.511 17.16C207.191 21.5333 208.831 28.3467 210.431 37.6C210.484 37.8933 210.431 38.2133 210.271 38.56C210.111 38.88 209.684 39.04 208.991 39.04C208.564 39.04 208.178 38.9333 207.831 38.72C207.511 38.48 207.298 38.1067 207.191 37.6L206.591 34.52C205.951 31.1333 205.524 29.3733 205.311 29.24C204.991 29.0533 203.924 28.8533 202.111 28.64C200.191 28.4267 199.004 28.32 198.551 28.32C197.964 28.32 197.618 28.3733 197.511 28.48C197.058 28.9067 196.404 32.1467 195.551 38.2C195.444 38.7067 194.938 38.96 194.031 38.96C193.124 38.96 192.671 38.5733 192.671 37.8C192.671 35.9067 193.378 32.24 194.791 26.8C196.178 21.4667 197.351 17.88 198.311 16.04ZM203.671 20.96C202.951 18.3733 202.364 17.08 201.911 17.08C201.538 17.08 200.844 18.2667 199.831 20.64C198.844 22.96 198.351 24.4133 198.351 25C198.351 25.1333 198.378 25.2267 198.431 25.28C198.644 25.4933 199.484 25.68 200.951 25.84C202.284 26 203.324 26.08 204.071 26.08C204.418 26.08 204.618 26.0533 204.671 26C204.724 25.8933 204.751 25.68 204.751 25.36C204.751 24.9867 204.391 23.52 203.671 20.96ZM218.402 36.4C218.376 35.6533 218.362 34.36 218.362 32.52V29.32L218.402 27.28C218.402 26.6133 218.176 25.9333 217.722 25.24C217.322 24.6 216.269 22.6667 214.562 19.44C212.882 16.24 212.042 14.44 212.042 14.04C212.042 13.6133 212.216 13.24 212.562 12.92C212.909 12.5733 213.229 12.4 213.522 12.4C213.896 12.4 214.309 12.7067 214.762 13.32C215.189 13.88 216.109 15.4933 217.522 18.16C218.936 20.7467 219.736 22.1867 219.922 22.48C222.509 17.92 224.562 14.72 226.082 12.88C226.509 12.5333 226.856 12.36 227.122 12.36C227.256 12.36 227.376 12.3867 227.482 12.44C228.122 12.68 228.442 13.08 228.442 13.64C228.442 14.0133 228.336 14.3467 228.122 14.64L226.362 17.16C224.922 19.1867 223.696 21.1867 222.682 23.16C221.669 25.1867 221.162 26.4133 221.162 26.84V34.16L221.282 37.36C221.282 38.4 220.722 38.92 219.602 38.92C219.149 38.92 218.842 38.6667 218.682 38.16C218.522 37.7067 218.429 37.12 218.402 36.4Z" fill="#014E5B"/>
</svg>
