<svg width="422" height="399" viewBox="0 0 422 399" fill="none" xmlns="http://www.w3.org/2000/svg">
<path d="M193.029 67.761C193.029 67.761 136.563 70.247 106.65 129.289C76.7374 188.331 45.8524 169.902 27.6124 223.162C9.37241 276.421 46.1534 336.986 70.8084 343.548C95.4634 350.11 377.081 343.548 377.081 343.548C377.081 343.548 414.29 318.108 417.208 252.031C420.126 185.954 364.678 163.885 341.696 154.491C318.715 145.096 283.299 66.302 193.029 67.761Z" fill="#F3F5F4"/>
<path d="M273.937 229.234C338.983 185.469 351.596 162.997 383.701 158.818C461.899 148.641 404.604 350.776 225.536 393.97C140.457 414.492 35.0694 358.518 19.9974 315.029C5.42644 272.983 44.6564 257.211 102.583 279.762C160.512 302.313 240.796 251.533 273.937 229.234Z" stroke="#BBBFBD" stroke-miterlimit="10"/>
<path d="M350.273 186.001C353.966 181.966 353.687 175.701 349.652 172.009C345.616 168.317 339.351 168.595 335.659 172.631C331.967 176.667 332.245 182.931 336.281 186.623C340.317 190.316 346.581 190.037 350.273 186.001Z" fill="#D9D9D9"/>
<path d="M345.981 380.931C349.849 377.063 349.849 370.792 345.981 366.924C342.113 363.057 335.843 363.057 331.975 366.924C328.107 370.792 328.107 377.063 331.975 380.931C335.843 384.798 342.113 384.798 345.981 380.931Z" stroke="#BBBFBD" stroke-miterlimit="10"/>
<path d="M209.988 158.545C215.458 158.545 219.892 154.111 219.892 148.641C219.892 143.171 215.458 138.737 209.988 138.737C204.519 138.737 200.084 143.171 200.084 148.641C200.084 154.111 204.519 158.545 209.988 158.545Z" stroke="#BBBFBD" stroke-miterlimit="10"/>
<path d="M181.962 188.208L171.916 202.192H191.008L181.962 188.208Z" stroke="#BBBFBD" stroke-miterlimit="10" stroke-linecap="round" stroke-linejoin="round"/>
<path d="M134.752 365.849L128.437 378.008H147.528L134.752 365.849Z" fill="#D9D9D9"/>
<path d="M41.1171 216.345C43.5151 206.19 37.2265 196.014 27.0713 193.616C16.9161 191.218 6.73977 197.506 4.34184 207.662C1.94391 217.817 8.23244 227.993 18.3877 230.391C28.5429 232.789 38.7192 226.501 41.1171 216.345Z" stroke="#BBBFBD" stroke-miterlimit="10" stroke-linecap="round" stroke-linejoin="round"/>
<path d="M19.8073 217.489C19.6411 216.622 19.558 215.85 19.558 215.173C19.558 214.14 19.7004 213.28 19.9854 212.591C20.2704 211.89 20.6206 211.332 21.0362 210.917C21.4518 210.489 21.992 210.032 22.6569 209.545C23.2269 209.13 23.6781 208.768 24.0105 208.459C24.343 208.138 24.622 207.747 24.8476 207.283C25.0732 206.808 25.186 206.245 25.186 205.591C25.186 204.606 24.8892 203.846 24.2955 203.312C23.7018 202.766 22.9182 202.492 21.9445 202.492C20.9234 202.492 20.0329 202.766 19.273 203.312C18.5131 203.846 17.955 204.463 17.5988 205.164L15.0698 201.709C15.7703 200.842 16.7321 200.1 17.955 199.483C19.178 198.853 20.5435 198.539 22.0514 198.539C24.6398 198.539 26.5812 199.109 27.8754 200.248C29.1696 201.376 29.8167 203.003 29.8167 205.128C29.8167 205.983 29.6861 206.719 29.4249 207.337C29.1636 207.942 28.8371 208.453 28.4453 208.869C28.0535 209.272 27.5251 209.747 26.8602 210.293C26.1359 210.875 25.5482 211.404 25.097 211.878C24.6576 212.353 24.2836 212.965 23.9749 213.713C23.6662 214.461 23.5118 215.363 23.5118 216.42V217.489H19.8073ZM19.7717 220.908H23.7968V226.216H19.7717V220.908Z" fill="#99C6AB"/>
<path d="M230.66 87.2269C238.038 79.8484 238.038 67.8855 230.66 60.507C223.281 53.1285 211.318 53.1285 203.94 60.507C196.561 67.8855 196.561 79.8484 203.94 87.2269C211.318 94.6054 223.281 94.6054 230.66 87.2269Z" fill="#99C6AB"/>
<path d="M214.37 79.3667C214.204 78.4999 214.121 77.7281 214.121 77.0513C214.121 76.0183 214.263 75.1575 214.548 74.4688C214.833 73.7683 215.184 73.2102 215.599 72.7947C216.015 72.3672 216.555 71.9101 217.22 71.4233C217.79 71.0077 218.241 70.6455 218.574 70.3368C218.906 70.0162 219.185 69.6244 219.411 69.1613C219.636 68.6864 219.749 68.1224 219.749 67.4694C219.749 66.4839 219.452 65.724 218.858 65.1897C218.265 64.6435 217.481 64.3704 216.508 64.3704C215.486 64.3704 214.596 64.6435 213.836 65.1897C213.076 65.724 212.518 66.3414 212.162 67.0419L209.633 63.5867C210.333 62.72 211.295 61.9779 212.518 61.3604C213.741 60.7311 215.106 60.4165 216.614 60.4165C219.203 60.4165 221.144 60.9864 222.438 62.1263C223.733 63.2543 224.38 64.8809 224.38 67.0063C224.38 67.8612 224.249 68.5974 223.988 69.2148C223.727 69.8203 223.4 70.3309 223.008 70.7465C222.616 71.1502 222.088 71.6251 221.423 72.1713C220.699 72.7531 220.111 73.2815 219.66 73.7564C219.221 74.2313 218.847 74.8428 218.538 75.5909C218.229 76.3389 218.075 77.2413 218.075 78.298V79.3667H214.37ZM214.335 82.7862H218.36V88.0937H214.335V82.7862Z" fill="white"/>
<path d="M81.1344 222.061C82.3369 216.945 79.1641 211.822 74.0479 210.62C68.9316 209.417 63.8093 212.59 62.6068 217.706C61.4043 222.823 64.5771 227.945 69.6934 229.147C74.8096 230.35 79.932 227.177 81.1344 222.061Z" fill="#D9D9D9"/>
<g filter="url(#filter0_d_314_3)">
<path d="M408.964 49.823H323.809C318.948 49.823 315.008 53.763 315.008 58.624V109.875C315.008 114.736 318.948 118.676 323.809 118.676H341.142L337.705 127.557C336.71 130.129 339.688 132.407 341.91 130.774L358.37 118.675H408.965C413.826 118.675 417.766 114.735 417.766 109.874V58.623C417.765 53.763 413.824 49.823 408.964 49.823Z" fill="#AED6BE"/>
<path d="M325.053 64.19H406.509" stroke="white" stroke-miterlimit="10" stroke-linecap="round" stroke-linejoin="round"/>
<path d="M325.053 71.588H406.509" stroke="white" stroke-miterlimit="10" stroke-linecap="round" stroke-linejoin="round"/>
<path d="M325.053 78.987H406.509" stroke="white" stroke-miterlimit="10" stroke-linecap="round" stroke-linejoin="round"/>
<path d="M325.053 86.386H406.509" stroke="white" stroke-miterlimit="10" stroke-linecap="round" stroke-linejoin="round"/>
<path d="M325.053 93.785H406.509" stroke="white" stroke-miterlimit="10" stroke-linecap="round" stroke-linejoin="round"/>
<path d="M325.053 101.184H406.509" stroke="white" stroke-miterlimit="10" stroke-linecap="round" stroke-linejoin="round"/>
</g>
<path d="M142.707 212.745C142.707 212.745 141.84 205.466 140.714 201.999C139.587 198.533 134.821 191.947 134.821 191.947C134.821 191.947 132.915 196.02 135.688 199.399C135.688 199.399 135.515 204.772 135.775 206.678C135.775 206.678 126.766 198.983 125.033 198.203C123.934 197.326 122.593 196.257 120.956 194.952C114.977 190.186 110.991 191.659 111.51 192.006C111.868 192.244 118.706 197.774 122.939 201.202L122.385 201.995C121.099 200.969 119.051 199.334 116.016 196.915C110.037 192.149 106.05 193.622 106.57 193.969C107.005 194.259 117.014 202.366 120.278 205.011L119.315 206.391C118.049 205.381 115.943 203.7 112.722 201.133C106.743 196.367 102.757 197.84 103.276 198.187C103.721 198.484 114.208 206.98 117.207 209.41L116.186 210.873C115.073 209.862 111.981 207.116 108.996 205.033C105.27 202.433 102.583 203.646 102.583 203.646C102.583 203.646 102.583 203.646 104.229 205.119C105.875 206.592 114.454 213.352 114.454 213.352C114.454 213.352 127.552 225.051 130.839 226.177L134.044 229.235L145.837 216.47L142.707 212.745Z" fill="#FF996A"/>
<path d="M236.997 293.55C229.965 303.69 220.129 309.953 207.052 307.292C172.033 300.174 130.684 232.198 130.684 232.198L132.765 229.946L148.198 213.249L201.91 262.058L218.683 237.777L235.067 214.066L243.164 202.349C243.164 202.349 247.906 209.847 250.89 233.681C252.753 248.618 248.819 276.539 236.997 293.55Z" fill="#D3AA7D"/>
<path d="M236.997 293.55C229.965 303.69 220.129 309.953 207.052 307.292C172.033 300.174 130.684 232.198 130.684 232.198L132.765 229.946L134.048 229.233C134.048 229.233 183.322 297.019 204.087 286.936C216.926 280.702 218.988 255.851 218.684 237.776L235.068 214.065L236.997 293.55Z" fill="#C1966B"/>
<path d="M368.531 286.936L365.34 343.123H352.966L357.83 286.936H368.531Z" fill="#649176"/>
<path d="M292.795 286.936L289.604 343.123H277.231L282.095 286.936H292.795Z" fill="#649176"/>
<path d="M369.797 296.662H271.766C262.022 296.662 254.123 288.763 254.123 279.019V224.183C254.123 214.439 262.022 206.54 271.766 206.54H369.797C379.541 206.54 387.44 214.439 387.44 224.183V279.019C387.44 288.763 379.541 296.662 369.797 296.662Z" fill="#649176"/>
<path d="M361.529 296.662H263.498C253.754 296.662 245.855 288.763 245.855 279.019V224.183C245.855 214.439 253.754 206.54 263.498 206.54H361.529C371.273 206.54 379.172 214.439 379.172 224.183V279.019C379.171 288.763 371.272 296.662 361.529 296.662Z" fill="#7EAF92"/>
<path d="M287.638 181.242C287.638 181.242 306.972 178.137 332.983 205.046L338.983 343.123H230.275C230.275 343.123 218.405 249.971 232.241 216.844C246.078 183.716 270.929 179.761 287.638 181.242Z" fill="#FFD294"/>
<path d="M249.712 106.357L254.485 99.822L295.176 113.446L294.823 128.73H297.51C302.967 128.73 307.392 133.154 307.392 138.612C307.392 144.07 302.968 148.494 297.51 148.494H294.366L293.887 169.239V187.469L264.427 191.52L263.705 179.327L263.323 172.921L259.048 170.88C246.812 165.041 239.018 152.689 239.018 139.13C239.018 127.344 242.765 115.869 249.712 106.357Z" fill="#FF996A"/>
<path d="M263.323 172.92L263.705 179.326C264.788 179.197 265.922 179.029 267.099 178.815C285.294 175.498 292.417 159.052 291.678 150.579C291.678 150.579 285.544 170.957 263.323 172.92Z" fill="#D37A57"/>
<path d="M297.814 135.781C297.052 136.358 296.35 137.121 296.099 138.075C296.099 138.075 297.618 138.581 297.756 140.285C297.894 141.988 296.099 142.725 296.099 142.725C296.099 142.725 297.48 145.027 299.782 143.784C302.084 142.541 301.702 138.202 299.414 137.293C299.414 137.293 303.051 136.879 304.385 138.214C304.385 138.214 304.69 136.875 303.17 135.691C301.603 134.468 299.397 134.582 297.814 135.781Z" fill="#D37A57"/>
<path d="M249.712 106.357C249.712 106.357 255.222 115.841 262.342 118.91C269.462 121.979 277.072 117.512 284.192 121.587C291.312 125.662 286.77 133.299 288.366 136.969C289.962 140.638 291.732 141.129 291.732 141.129C291.732 141.129 292.689 130.695 294.824 128.731C294.824 128.731 301.217 128.677 303.207 130.54C303.207 130.54 306.779 123.33 307.393 117.683C308.007 112.036 301.746 110.195 301.746 110.195C301.746 110.195 300.273 96.692 283.701 91.659C267.129 86.626 254.486 94.605 247.857 91.659C241.228 88.713 235.213 93.133 234.845 99.823C234.477 106.512 239.019 108.968 239.019 108.968C239.019 108.968 235.95 111.555 237.178 115.54C238.406 119.525 242.258 120.445 242.258 120.445C242.258 120.445 246.792 110.34 249.712 106.357Z" fill="#3F2D1F"/>
<path d="M253.012 154.89L269.885 154.061C269.885 154.061 265.979 160.138 260.419 160.08C255.299 160.026 253.012 154.89 253.012 154.89Z" fill="white"/>
<path d="M272.406 127.409C272.194 127.409 271.98 127.338 271.803 127.192C268.242 124.258 264.74 126.75 264.704 126.777C264.28 127.088 263.685 126.994 263.376 126.57C263.067 126.146 263.159 125.552 263.583 125.242C265.203 124.059 269.26 122.635 273.011 125.725C273.416 126.059 273.474 126.658 273.14 127.063C272.953 127.291 272.681 127.409 272.406 127.409Z" fill="#3F2D1F"/>
<path d="M251.423 127.409C251.21 127.409 250.997 127.338 250.82 127.192C247.259 124.258 243.756 126.75 243.721 126.777C243.297 127.088 242.702 126.994 242.393 126.57C242.084 126.146 242.176 125.552 242.6 125.242C244.221 124.059 248.277 122.635 252.028 125.725C252.434 126.059 252.491 126.658 252.157 127.063C251.97 127.291 251.698 127.409 251.423 127.409Z" fill="#3F2D1F"/>
<path d="M299.29 182.683L293.95 175.737L272.741 183.211L269.307 189.17L266.984 183.817L263.763 180.3L260.42 186.746C260.42 186.746 260.521 193.21 268.702 194.927C276.882 196.644 294.758 189.978 299.29 182.683Z" fill="#9C897A"/>
<path d="M303.206 130.539C303.206 130.539 299.909 129.28 296.779 132.158C293.649 135.036 294.709 137.864 294.709 137.864C294.709 137.864 296.155 134.454 299.254 134.826C302.353 135.198 304.607 143.57 300.466 145.136C296.325 146.701 291.04 144.316 291.225 137.864C291.41 131.413 293.776 127.764 297.676 127.209C301.576 126.653 303.119 129.93 303.206 130.539Z" fill="#77A58A"/>
<path d="M273.926 162.967C273.526 162.967 273.17 162.684 273.091 162.277C273.003 161.815 273.305 161.369 273.767 161.28C289.808 158.195 295.242 143.089 295.295 142.937C295.449 142.494 295.932 142.259 296.378 142.413C296.822 142.567 297.057 143.051 296.903 143.495C296.846 143.657 291.114 159.677 274.087 162.951C274.034 162.962 273.98 162.967 273.926 162.967Z" fill="#77A58A"/>
<path d="M270.348 162.408C270.348 164.39 271.955 165.997 273.938 165.997C275.921 165.997 277.527 164.39 277.527 162.408C277.527 160.426 275.92 158.818 273.938 158.818C271.956 158.818 270.348 160.425 270.348 162.408Z" fill="#649176"/>
<path d="M298.849 136.373C298.849 136.373 298.395 140.338 299.266 142.46C300.137 144.581 301.501 143.483 301.766 140.907C302.03 138.331 299.455 134.718 298.849 136.373Z" fill="#649176"/>
<path d="M264.718 135.042C264.718 135.042 264.725 138.743 269.569 139.357C274.414 139.971 275.296 135.042 275.296 135.042C275.296 135.042 272.545 132.463 268.988 132.387C265.432 132.31 264.718 135.042 264.718 135.042Z" fill="white"/>
<path d="M242.585 135.042C242.585 135.042 242.591 138.743 247.332 139.357C252.072 139.971 252.707 135.046 252.707 135.046C252.707 135.046 250.243 132.463 246.763 132.387C243.283 132.31 242.585 135.042 242.585 135.042Z" fill="white"/>
<path d="M252.706 135.046C252.706 135.046 250.167 132.257 247.45 131.756C244.733 131.255 242.868 132.578 242.585 135.046C242.585 135.046 243.124 133.008 245.841 132.758C248.559 132.507 252.706 135.046 252.706 135.046Z" fill="#3F2D1F"/>
<path d="M275.297 135.042C275.297 135.042 272.644 132.127 269.804 131.604C266.964 131.081 265.015 132.463 264.719 135.042C264.719 135.042 265.282 132.912 268.122 132.65C270.962 132.389 275.297 135.042 275.297 135.042Z" fill="#3F2D1F"/>
<path d="M257.361 135.148L255.127 148.635C255.127 148.635 253.349 148.772 250.886 147.769C250.886 147.769 256.723 136.663 257.361 135.148Z" fill="#D37A57"/>
<path d="M190.878 343.123C190.878 343.123 190.515 332.353 202.643 328.979C214.772 325.604 229.546 335.471 231.917 343.123H190.878Z" fill="#649176"/>
<path d="M269.369 139.835C271.048 139.835 272.408 138.114 272.408 135.99C272.408 133.866 271.048 132.145 269.369 132.145C267.691 132.145 266.33 133.866 266.33 135.99C266.33 138.114 267.691 139.835 269.369 139.835Z" fill="#3F2D1F"/>
<path d="M251.099 136.11C251.099 138.167 249.772 139.835 248.135 139.835C246.498 139.835 245.171 138.167 245.171 136.11C245.171 134.053 246.498 132.385 248.135 132.385C249.772 132.385 251.099 134.052 251.099 136.11Z" fill="#3F2D1F"/>
<path d="M282.805 145.606C282.805 147.283 280.82 148.642 278.371 148.642C275.922 148.642 273.937 147.283 273.937 145.606C273.937 143.93 275.922 142.571 278.371 142.571C280.82 142.57 282.805 143.929 282.805 145.606Z" fill="#D37A57"/>
<path d="M246.599 144.151C246.599 145.827 244.614 147.186 242.165 147.186C239.716 147.186 237.731 145.827 237.731 144.151C237.731 142.474 239.716 141.115 242.165 141.115C244.614 141.115 246.599 142.474 246.599 144.151Z" fill="#D37A57"/>
<path d="M362.857 308.84C359.787 318.077 354.171 325.062 347.519 330.004C342.986 333.359 337.978 335.763 332.979 337.274C312.11 343.603 234.82 343.118 234.82 343.118L237.728 319.769L324.274 300.316C324.274 300.316 313.079 264.803 313.573 236.112C314.02 209.408 321.983 198.403 330.954 203.602C331.629 204.001 332.303 204.476 332.978 205.046C332.978 205.046 346.644 225.411 360.746 267.235C366.516 284.341 366.411 298.102 362.857 308.84Z" fill="#E5BC89"/>
<path d="M228.938 322.87L210.577 319.524C210.577 319.524 207.203 318.946 203.828 320.406C200.454 321.865 196.623 328.979 196.623 328.979C196.623 328.979 199.724 329.025 201.821 327.133C203.919 325.24 204.192 323.599 204.192 323.599L210.93 324.124L211.05 325.687C208.8 326.179 202.394 327.64 199.268 328.98C195.438 330.622 193.431 335.637 193.431 335.637C193.431 335.637 198.447 334.908 201 331.807L211.43 330.624L211.505 331.598C209.355 331.744 205.516 332.226 201.913 333.814C196.532 336.185 194.891 339.377 194.891 339.377C194.891 339.377 200.272 339.377 204.056 336.459L206.604 336.248C204.086 337.862 201.913 341.749 201.913 341.749C201.913 341.749 203.007 342.023 205.47 340.928C207.932 339.834 208.571 338.586 208.571 338.586L215.747 339.123C219.473 339.655 225.11 340.178 228.331 339.104L235.193 340.16L237.347 322.874H228.938V322.87Z" fill="#FF996A"/>
<path d="M381.79 354.422H36.5364C33.4164 354.422 30.8864 351.892 30.8864 348.772C30.8864 345.652 33.4164 343.122 36.5364 343.122H381.791C384.911 343.122 387.441 345.652 387.441 348.772C387.44 351.893 384.911 354.422 381.79 354.422Z" fill="#649176"/>
<path d="M249.442 354.422H34.2765C32.4045 354.422 30.8864 351.892 30.8864 348.772C30.8864 345.652 32.4045 343.122 34.2765 343.122H141.859H249.442C251.314 343.122 252.832 345.652 252.832 348.772C252.832 351.893 251.314 354.422 249.442 354.422Z" fill="#7EAF92"/>
<path d="M184.377 321.348H65.4775C61.4675 321.348 57.9965 318.558 57.1334 314.642L41.7645 244.842C41.0105 241.419 43.6174 238.176 47.1224 238.176H167.363C170.917 238.176 173.993 240.648 174.757 244.119L190.174 314.136C190.989 317.84 188.169 321.348 184.377 321.348Z" fill="#7EAF92"/>
<path d="M84.9744 309.525C83.9814 314.527 78.1444 317.583 71.9364 316.35C65.7284 315.118 61.5014 310.064 62.4944 305.062C63.4874 300.06 69.3244 297.005 75.5324 298.237C81.7404 299.47 85.9674 304.523 84.9744 309.525Z" fill="#99C6AB"/>
<path d="M190.173 314.136L174.756 244.118C173.992 240.647 170.916 238.175 167.362 238.175H160.431C163.985 238.175 167.061 240.647 167.825 244.118L183.242 314.136C184.058 317.84 181.238 321.348 177.445 321.348H184.376C188.169 321.348 190.989 317.84 190.173 314.136Z" fill="#649176"/>
<path d="M169.597 340.318C169.597 341.867 168.346 343.118 166.797 343.118H68.0945C66.5115 343.118 65.0725 342.471 64.0345 341.433C62.9875 340.395 62.3495 338.965 62.3495 337.373C62.3495 336.241 62.6895 335.134 63.3195 334.19L87.7485 297.589C88.4465 296.559 89.6045 295.938 90.8465 295.938H133.558C135.09 295.938 136.052 297.598 135.277 298.926L114.653 334.556C113.887 335.875 114.84 337.518 116.355 337.518H166.796C167.571 337.518 168.269 337.833 168.779 338.344C169.282 338.846 169.597 339.544 169.597 340.318Z" fill="#649176"/>
<path d="M140.293 279.275H79.7385C79.0335 279.275 78.4615 278.703 78.4615 277.998C78.4615 277.293 79.0335 276.721 79.7385 276.721H140.293C140.998 276.721 141.57 277.293 141.57 277.998C141.57 278.704 140.998 279.275 140.293 279.275Z" fill="#649176"/>
<path d="M143.212 286.936H82.6565C81.9515 286.936 81.3795 286.364 81.3795 285.659C81.3795 284.954 81.9515 284.382 82.6565 284.382H143.211C143.916 284.382 144.488 284.954 144.488 285.659C144.488 286.365 143.917 286.936 143.212 286.936Z" fill="#649176"/>
<path d="M43.0185 242.31H171.25C172.293 242.31 173.295 242.503 174.22 242.847C173.066 240.06 170.329 238.176 167.227 238.176H46.9865C44.3175 238.176 42.1745 240.057 41.6345 242.465C42.0765 242.365 42.5395 242.31 43.0185 242.31Z" fill="#99C6AB"/>
<path d="M174.754 309.525C173.761 314.527 167.924 317.583 161.716 316.35C155.508 315.118 151.281 310.064 152.274 305.062C153.267 300.06 159.104 297.005 165.312 298.237C171.519 299.47 175.746 304.523 174.754 309.525Z" fill="#99C6AB"/>
<path d="M169.59 340.522C169.484 342.013 168.142 343.119 166.647 343.119H110.475C108.207 343.119 106.368 341.28 106.368 339.013C106.368 338.237 106.588 337.477 107.002 336.821L132.809 295.939H133.558C135.09 295.939 136.052 297.599 135.277 298.927L114.653 334.557C113.887 335.876 114.84 337.519 116.355 337.519H166.796C167.571 337.519 168.269 337.834 168.779 338.345C169.326 338.889 169.65 339.667 169.59 340.522Z" fill="#527A62"/>
<path d="M332.979 337.274C312.11 343.603 234.82 343.118 234.82 343.118L334.681 316.546C345.123 313.767 351.773 303.549 350.075 292.878C345.686 265.291 337.191 215.791 330.954 203.601C331.629 204 332.303 204.475 332.978 205.045C332.978 205.045 346.644 225.41 360.746 267.234C374.85 309.068 353.858 330.954 332.979 337.274Z" fill="#D3AA7D"/>
<path d="M327.09 301.295C327.09 301.295 341.369 301.094 352.965 311.682" stroke="#9C897A" stroke-miterlimit="10" stroke-linecap="round" stroke-linejoin="round"/>
<path d="M297.212 185.175C297.212 185.175 316.001 191.564 325.254 202.518" stroke="#E5BC89" stroke-miterlimit="10" stroke-linecap="round" stroke-linejoin="round"/>
<path d="M203.684 265.25C203.684 265.25 214.06 278.69 215.388 294.167" stroke="#9C897A" stroke-miterlimit="10" stroke-linecap="round" stroke-linejoin="round"/>
<path d="M257.354 186.845C257.354 186.845 253.409 197.913 269.885 199.271C286.362 200.629 304.421 184.465 304.421 184.465" stroke="#E5BC89" stroke-miterlimit="10" stroke-linecap="round" stroke-linejoin="round"/>
<path d="M234.82 322.87L230.962 339.506L235.192 340.157L237.345 322.87H234.82Z" fill="#D37A57"/>
<path d="M268.701 194.927C268.701 194.927 263.816 208.847 260.419 244.847" stroke="#E5BC89" stroke-miterlimit="10" stroke-linecap="round" stroke-linejoin="round"/>
<path d="M300.254 110.348C300.254 110.348 292.558 108.527 285.594 111.205" stroke="#543E2F" stroke-miterlimit="10" stroke-linecap="round" stroke-linejoin="round"/>
<path d="M249.712 106.357C249.712 106.357 248.936 117.627 263.194 119.237" stroke="#543E2F" stroke-miterlimit="10" stroke-linecap="round" stroke-linejoin="round"/>
<path d="M301.523 102.919C301.523 102.919 303.182 107.398 301.746 110.194" stroke="#543E2F" stroke-miterlimit="10" stroke-linecap="round" stroke-linejoin="round"/>
<path d="M236.951 98.348C236.951 98.348 236.308 105.269 243.379 107.991" stroke="#543E2F" stroke-miterlimit="10" stroke-linecap="round" stroke-linejoin="round"/>
<path d="M239.523 111.205C239.523 111.205 238.21 116.385 243.098 118.616" stroke="#543E2F" stroke-miterlimit="10" stroke-linecap="round" stroke-linejoin="round"/>
<path d="M262.344 93.526C262.344 93.526 271.463 89.527 284.415 95.347C296.098 100.597 297.212 107.133 297.212 107.133" stroke="#543E2F" stroke-miterlimit="10" stroke-linecap="round" stroke-linejoin="round"/>
<path d="M301.523 113.133C301.523 113.133 304.094 114.347 304.094 117.99C304.094 121.633 302.331 125.347 302.331 125.347" stroke="#543E2F" stroke-miterlimit="10" stroke-linecap="round" stroke-linejoin="round"/>
<path d="M258.701 111.848C258.701 111.848 260.52 116.669 271.128 117.205C281.736 117.741 285.165 117.741 288.058 121.169C290.951 124.598 289.987 128.348 289.987 128.348" stroke="#543E2F" stroke-miterlimit="10" stroke-linecap="round" stroke-linejoin="round"/>
<g filter="url(#filter1_d_314_3)">
<path d="M254.728 0H158.184C152.593 0 148.061 4.533 148.061 10.124V26.654C148.061 32.245 152.593 36.777 158.184 36.777H170.971L167.996 47.051C167.442 48.964 169.55 50.545 171.231 49.478L191.251 36.777H254.728C260.319 36.777 264.851 32.245 264.851 26.654V10.124C264.852 4.533 260.319 0 254.728 0Z" fill="#D9D9D9"/>
<path d="M161.191 9.895H252.286" stroke="white" stroke-miterlimit="10" stroke-linecap="round" stroke-linejoin="round"/>
<path d="M161.191 17.624H252.286" stroke="white" stroke-miterlimit="10" stroke-linecap="round" stroke-linejoin="round"/>
<path d="M161.191 25.353H252.286" stroke="white" stroke-miterlimit="10" stroke-linecap="round" stroke-linejoin="round"/>
</g>
<g filter="url(#filter2_d_314_3)">
<path d="M97.4414 182.432C142.838 182.432 179.639 145.631 179.639 100.234C179.639 54.8373 142.838 18.036 97.4414 18.036C52.0447 18.036 15.2434 54.8373 15.2434 100.234C15.2434 145.631 52.0447 182.432 97.4414 182.432Z" stroke="#BBBFBD" stroke-miterlimit="10"/>
<path d="M174.422 100.227C174.422 128.955 158.685 154.006 135.364 167.234C132.751 168.716 130.042 170.057 127.258 171.225C118.087 175.083 108.014 177.212 97.4474 177.212C96.7444 177.212 96.0504 177.202 95.3564 177.183C94.9284 177.173 94.5014 177.154 94.0734 177.126C93.7694 177.126 93.4744 177.117 93.1704 177.088C92.7144 177.069 92.2584 177.04 91.8114 177.003C91.6214 176.993 91.4314 176.984 91.2414 176.955C90.6994 176.926 90.1674 176.87 89.6354 176.822C89.0174 176.756 88.4094 176.689 87.8014 176.613L106.836 149.082L56.2694 94.258L23.2744 120.915C22.9324 119.68 22.6184 118.444 22.3334 117.18C22.2294 116.705 22.1244 116.22 22.0294 115.745C21.8964 115.118 21.7724 114.481 21.6684 113.854C21.5924 113.436 21.5164 113.018 21.4594 112.6C21.3544 112.001 21.2694 111.393 21.1834 110.785C21.1354 110.443 21.0884 110.11 21.0504 109.768C20.9834 109.245 20.9174 108.713 20.8694 108.181L20.8404 107.867C20.7834 107.297 20.7264 106.727 20.6884 106.147C20.6404 105.51 20.5934 104.874 20.5644 104.227V104.189C20.5264 103.533 20.4974 102.878 20.4884 102.212C20.4694 101.556 20.4604 100.891 20.4604 100.226C20.4604 87.444 23.5774 75.394 29.0894 64.788C40.5414 42.742 62.3514 26.938 88.0764 23.812C91.1464 23.441 94.2724 23.251 97.4464 23.251C110.37 23.251 122.563 26.444 133.254 32.079L99.7274 59.154L122.107 127.016L165.508 64.257C171.2 74.987 174.422 87.236 174.422 100.227Z" fill="#99C6AB"/>
<path d="M28.8864 64.722L56.0654 94.191L23.0704 120.848C22.7284 119.613 22.4144 118.377 22.1294 117.113C22.0254 116.638 21.9204 116.153 21.8254 115.678C21.6924 115.051 21.5684 114.414 21.4644 113.787C21.3884 113.369 21.3124 112.951 21.2554 112.533C21.1514 111.934 21.0654 111.326 20.9794 110.718C20.9314 110.376 20.8844 110.043 20.8464 109.701C20.7794 109.178 20.7134 108.646 20.6654 108.114L20.6374 107.8C20.5804 107.23 20.5234 106.66 20.4854 106.08C20.4384 105.443 20.3904 104.807 20.3614 104.16V104.122C20.3234 103.466 20.2954 102.811 20.2854 102.145C20.2664 101.489 20.2574 100.824 20.2574 100.159C20.2574 87.377 23.3744 75.327 28.8864 64.722Z" fill="#7EAF92"/>
<path d="M127.054 171.158C117.883 175.016 107.81 177.145 97.2424 177.145C96.5394 177.145 95.8454 177.135 95.1514 177.116C94.7234 177.106 94.2964 177.087 93.8684 177.059C93.5644 177.059 93.2694 177.049 92.9654 177.021C92.5094 177.002 92.0534 176.973 91.6064 176.936C91.4164 176.926 91.2264 176.917 91.0364 176.888C90.4944 176.86 89.9624 176.803 89.4304 176.755C88.8124 176.689 88.2044 176.622 87.5964 176.546L106.631 149.015L127.054 171.158Z" fill="#7EAF92"/>
<path d="M133.051 32.012L99.5244 59.087L87.8734 23.745C90.9434 23.374 94.0694 23.184 97.2434 23.184C110.167 23.183 122.359 26.376 133.051 32.012Z" fill="#7EAF92"/>
<path d="M174.218 100.159C174.218 128.887 158.481 153.938 135.16 167.166L121.903 126.949L165.304 64.19C170.997 74.919 174.218 87.168 174.218 100.159Z" fill="#7EAF92"/>
<path d="M106.632 149.015L87.5974 176.546C87.1124 176.489 86.6284 176.423 86.1434 176.346C85.7444 176.289 85.3454 176.232 84.9464 176.166C84.4994 176.1 84.0624 176.023 83.6154 175.938C83.0264 175.834 82.4374 175.729 81.8474 175.605C81.3434 175.501 80.8404 175.396 80.3454 175.282C80.0314 175.215 79.7184 175.139 79.4044 175.063C78.9864 174.968 78.5774 174.863 78.1594 174.759C76.8004 174.417 75.4604 174.027 74.1304 173.609C73.6454 173.457 73.1614 173.305 72.6864 173.143C72.0404 172.924 71.4034 172.706 70.7764 172.468C70.1874 172.259 69.5984 172.031 69.0184 171.803C68.4294 171.575 67.8494 171.337 67.2794 171.09C66.7094 170.852 66.1394 170.605 65.5784 170.349C65.5784 170.349 65.5694 170.349 65.5594 170.339C64.9894 170.082 64.4284 169.816 63.8674 169.55C62.1564 168.733 60.4934 167.849 58.8594 166.908C58.3464 166.604 57.8334 166.3 57.3294 165.996C56.2654 165.359 55.2194 164.685 54.2024 163.991C53.6894 163.649 53.1854 163.297 52.6824 162.936C52.1784 162.584 51.6754 162.214 51.1804 161.843C51.1614 161.833 51.1424 161.814 51.1144 161.795C50.6484 161.443 50.1734 161.082 49.7174 160.721C49.3084 160.398 48.9094 160.084 48.5104 159.752C47.9214 159.277 47.3414 158.783 46.7714 158.288C46.3344 157.908 45.9064 157.528 45.4794 157.138C45.0514 156.748 44.6244 156.349 44.1964 155.95C44.1484 155.902 44.1014 155.864 44.0634 155.826C43.6454 155.417 43.2274 155.009 42.8094 154.591C42.4484 154.23 42.0874 153.859 41.7264 153.489C41.2324 152.976 40.7384 152.453 40.2624 151.921C39.8444 151.465 39.4354 150.999 39.0364 150.533C38.7134 150.172 38.4094 149.801 38.1054 149.431C37.9154 149.222 37.7444 149.013 37.5734 148.794C37.2694 148.423 36.9744 148.053 36.6804 147.682C36.3474 147.264 36.0244 146.846 35.7114 146.418C35.2834 145.857 34.8654 145.297 34.4664 144.717C34.1054 144.213 33.7534 143.71 33.4114 143.196C33.1644 142.835 32.9264 142.474 32.6894 142.103C32.5374 141.884 32.3944 141.656 32.2524 141.428C31.6064 140.421 30.9794 139.385 30.3804 138.339C30.1044 137.845 29.8294 137.351 29.5534 136.847C28.9264 135.697 28.3274 134.528 27.7664 133.34C27.5194 132.846 27.2914 132.342 27.0634 131.839C26.8254 131.307 26.5884 130.775 26.3604 130.243C26.3414 130.205 26.3324 130.157 26.3134 130.119C26.0754 129.558 25.8384 128.988 25.6104 128.418C25.6104 128.399 25.6004 128.38 25.5914 128.352C25.3634 127.782 25.1444 127.202 24.9354 126.623C24.7264 126.072 24.5264 125.511 24.3364 124.941C24.1654 124.437 23.9944 123.924 23.8324 123.411C23.7184 123.031 23.5944 122.641 23.4804 122.261C23.4714 122.232 23.4614 122.213 23.4614 122.185C23.3284 121.738 23.1954 121.292 23.0714 120.845L56.0664 94.188L106.632 149.015Z" fill="#649176"/>
<path d="M165.304 64.19L121.903 126.949L99.5234 59.087L133.05 32.012C146.783 39.234 158.054 50.476 165.304 64.19Z" fill="#649176"/>
<path d="M121.903 126.949L106.632 149.015L56.0654 94.191L99.5234 59.086L121.903 126.949Z" fill="#7EAF92"/>
<path d="M111.493 89.451L111.735 85.398L114.44 84.107C122.182 80.412 127.114 72.597 127.114 64.017C127.114 56.56 124.744 49.299 120.348 43.28L117.328 39.145L91.5814 47.765L91.8054 57.436H90.1054C86.6524 57.436 83.8524 60.235 83.8524 63.689C83.8524 67.142 86.6514 69.942 90.1054 69.942H92.0944L92.3974 83.069V87.677C92.3974 87.677 87.7474 92.157 78.9224 95.958C78.9224 95.958 88.7614 108.312 105.02 109.127C121.279 109.942 121.905 100.165 121.905 100.165C121.905 100.165 115.163 96.129 111.297 92.786L111.493 89.451Z" fill="#FF996A"/>
<path d="M111.735 85.398L111.493 89.451C110.808 89.37 110.09 89.263 109.345 89.127C97.8324 87.028 93.3254 76.622 93.7924 71.261C93.7924 71.261 97.6754 84.156 111.735 85.398Z" fill="#D37A57"/>
<path d="M89.9104 61.898C90.3924 62.263 90.8364 62.746 90.9954 63.349C90.9954 63.349 90.0344 63.669 89.9464 64.747C89.8594 65.825 90.9954 66.291 90.9954 66.291C90.9954 66.291 90.1214 67.747 88.6654 66.961C87.2094 66.175 87.4504 63.429 88.8984 62.854C88.8984 62.854 86.5974 62.592 85.7524 63.437C85.7524 63.437 85.5594 62.59 86.5214 61.84C87.5134 61.068 88.9084 61.139 89.9104 61.898Z" fill="#D37A57"/>
<path d="M111.181 54.281C111.047 54.285 110.913 54.334 110.803 54.429C108.605 56.351 106.344 54.839 106.321 54.823C106.047 54.635 105.673 54.705 105.485 54.979C105.297 55.253 105.367 55.627 105.64 55.815C106.687 56.533 109.279 57.359 111.594 55.335C111.844 55.117 111.87 54.737 111.651 54.487C111.529 54.345 111.354 54.276 111.181 54.281Z" fill="#3F2D1F"/>
<path d="M124.709 55.759C124.591 55.694 124.451 55.668 124.309 55.695C121.439 56.232 120.26 53.781 120.249 53.756C120.109 53.454 119.751 53.325 119.45 53.465C119.149 53.605 119.019 53.963 119.159 54.264C119.696 55.415 121.508 57.443 124.53 56.878C124.857 56.817 125.072 56.503 125.01 56.176C124.975 55.991 124.861 55.843 124.709 55.759Z" fill="#3F2D1F"/>
<path d="M110.852 61.43C110.852 61.43 110.848 63.772 107.782 64.16C104.716 64.548 104.158 61.43 104.158 61.43C104.158 61.43 105.899 59.798 108.15 59.75C110.4 59.702 110.852 61.43 110.852 61.43Z" fill="white"/>
<path d="M124.857 61.43C124.857 61.43 124.853 63.772 121.854 64.16C118.855 64.549 118.453 61.432 118.453 61.432C118.453 61.432 120.012 59.797 122.214 59.749C124.415 59.702 124.857 61.43 124.857 61.43Z" fill="white"/>
<path d="M118.452 61.433C118.452 61.433 120.058 59.668 121.778 59.351C123.497 59.034 124.677 59.871 124.857 61.433C124.857 61.433 124.516 60.143 122.796 59.985C121.077 59.827 118.452 61.433 118.452 61.433Z" fill="#3F2D1F"/>
<path d="M104.158 61.43C104.158 61.43 105.837 59.586 107.634 59.255C109.431 58.924 110.664 59.799 110.851 61.43C110.851 61.43 110.495 60.082 108.698 59.917C106.901 59.752 104.158 61.43 104.158 61.43Z" fill="#3F2D1F"/>
<path d="M115.507 61.497L116.921 70.031C116.921 70.031 118.046 70.118 119.604 69.483C119.604 69.483 115.911 62.456 115.507 61.497Z" fill="#D37A57"/>
<path d="M105.987 62.03C105.987 63.374 106.848 64.463 107.91 64.463C108.972 64.463 109.833 63.374 109.833 62.03C109.833 60.687 108.972 59.597 107.91 59.597C106.848 59.597 105.987 60.687 105.987 62.03Z" fill="#3F2D1F"/>
<path d="M119.47 62.106C119.47 63.408 120.31 64.463 121.346 64.463C122.382 64.463 123.221 63.408 123.221 62.106C123.221 60.804 122.381 59.749 121.346 59.749C120.309 59.749 119.47 60.804 119.47 62.106Z" fill="#3F2D1F"/>
<path d="M102.213 70.036C103.763 70.036 105.018 69.1759 105.018 68.115C105.018 67.0541 103.763 66.194 102.213 66.194C100.664 66.194 99.4084 67.0541 99.4084 68.115C99.4084 69.1759 100.664 70.036 102.213 70.036Z" fill="#D37A57"/>
<path d="M125.122 69.115C126.672 69.115 127.928 68.2549 127.928 67.194C127.928 66.1331 126.672 65.273 125.122 65.273C123.573 65.273 122.316 66.1331 122.316 67.194C122.316 68.2549 123.573 69.115 125.122 69.115Z" fill="#D37A57"/>
<path d="M116.526 73.319C116.526 73.319 111.995 73.472 110.162 75.152C108.329 76.832 115.1 77.341 116.526 76.679C117.951 76.018 118.585 73.107 116.526 73.319Z" fill="white"/>
<path d="M105.482 60.512C105.482 60.512 104.579 60.94 103.595 60.308C103.595 60.308 103.687 61.234 104.159 61.43L105.482 60.512Z" fill="#3F2D1F"/>
<path d="M123.819 59.884C123.819 59.884 124.885 60.766 125.695 60.495C125.993 60.395 124.86 61.433 124.86 61.433C124.59 60.449 123.819 59.884 123.819 59.884Z" fill="#3F2D1F"/>
<path d="M130.007 105.102C130.007 105.102 144.425 131.454 149.923 153.552L135.057 162.209C135.057 162.209 129.148 150.398 127.113 132.274C125.079 114.149 130.007 105.102 130.007 105.102Z" fill="#847062"/>
<path d="M121.903 45.6C121.903 45.6 107.497 59.234 94.3294 57.741C94.3294 57.741 92.9034 67.312 95.2794 70.978C95.2794 70.978 94.2614 71.987 92.8354 68.156C91.4094 64.325 92.5354 59.033 91.8024 57.437C91.8024 57.437 87.4084 56.396 84.5214 60.87C81.6344 65.344 87.9534 70.807 92.0914 69.942L92.2814 78.169C92.2814 78.169 87.5404 79.938 83.5354 76.544C79.5304 73.15 81.4994 69.688 81.4994 69.688C81.4994 69.688 75.4584 63.725 75.1864 55.444C74.9144 47.163 81.8044 41.959 81.8044 41.959C81.8044 41.959 84.0784 29.707 99.2154 29.571C114.352 29.435 118.764 33.983 118.764 33.983C118.764 33.983 128.535 35.646 131.288 46.032C134.041 56.418 127.112 61.972 127.112 61.972C127.112 61.972 125.109 48.665 121.903 45.6Z" fill="#3F2D1F"/>
<path d="M84.3514 40.533C84.3514 40.533 83.6234 31.635 75.1794 32.011C66.7364 32.387 65.1074 42.06 68.7724 46.54C72.4384 51.02 77.2234 50.002 80.7874 46.54C84.3514 43.079 84.3514 40.533 84.3514 40.533Z" fill="#3F2D1F"/>
<path d="M95.3704 75.546L90.0484 86.627C89.8584 87.026 89.3544 87.14 89.0034 86.874L88.7844 86.703L71.3464 73.227C71.0804 73.018 70.9944 72.647 71.1564 72.343L77.1714 61.329L77.3144 61.072C77.5144 60.692 78.0174 60.597 78.3504 60.872L95.1904 74.718C95.4274 74.919 95.5034 75.261 95.3704 75.546Z" fill="white"/>
<path d="M132.072 168.924C121.666 174.179 109.901 177.135 97.4424 177.135C87.1884 177.135 77.4004 175.13 68.4574 171.481L62.7644 106.279C62.7644 106.279 63.9334 101.784 70.9084 99.218C78.8344 96.291 78.9194 95.958 78.9194 95.958C109.13 111.163 121.902 100.158 121.902 100.158L128.554 103.541C129.21 103.874 129.723 104.425 130.008 105.1C131.576 108.854 136.774 121.873 137.297 130.844C137.707 137.992 134.324 157.197 132.072 168.924Z" fill="#9C897A"/>
<path d="M66.0994 101.856C66.0994 101.856 58.7324 104.781 56.0654 124.059C53.3974 143.337 56.2454 153.551 56.2454 153.551L70.9104 136.142C70.9104 136.142 75.9304 109.454 66.0994 101.856Z" fill="#9C897A"/>
<path d="M87.9964 73.661C86.5904 74.473 82.9304 77.033 82.2764 78.111C81.9624 78.63 81.8314 79.221 81.7774 79.699L80.8574 79.24C81.3214 77.256 82.1784 75.273 82.1784 75.273C82.1784 75.273 83.6374 74.492 84.4524 73.338C85.2674 72.184 84.9614 71.262 84.9614 71.262C84.4054 71.583 83.5104 72.168 82.5774 72.83C82.5904 72.812 82.6064 72.796 82.6194 72.777C83.4334 71.623 83.1284 70.701 83.1284 70.701C81.6684 71.544 77.8684 74.202 77.1894 75.322C76.8234 75.926 76.6974 76.622 76.6554 77.141L76.3984 77.013C76.8344 74.914 77.8004 72.675 77.8004 72.675C77.8004 72.675 79.2594 71.894 80.0744 70.74C80.8884 69.586 80.5834 68.664 80.5834 68.664C79.1234 69.507 75.3234 72.165 74.6444 73.285C73.9654 74.405 74.1014 75.864 74.1014 75.864L74.6444 85.435L75.1794 95.956C75.1794 95.956 55.8414 140.214 56.0654 151.007C56.2894 161.8 62.7654 166.076 62.7654 166.076C62.7654 166.076 69.6894 165.261 74.1014 158.445C78.5134 151.629 82.5864 99.689 82.5864 99.689C82.5864 99.689 84.8944 96.159 85.3014 92.783C85.7084 89.407 84.1584 80.886 84.1584 80.886C84.6184 79.139 85.3164 77.521 85.3164 77.521C85.3164 77.521 86.7224 76.769 87.5064 75.658C88.2904 74.548 87.9964 73.661 87.9964 73.661Z" fill="#FF996A"/>
<path d="M95.3704 75.546L90.0484 86.627C89.8584 87.026 89.3544 87.14 89.0034 86.874L88.7844 86.703L94.1634 75.138L77.1714 61.33L77.3144 61.073C77.5144 60.693 78.0174 60.598 78.3504 60.873L95.1904 74.719C95.4274 74.919 95.5034 75.261 95.3704 75.546Z" fill="#D9D9D9"/>
<path d="M77.1724 63.545L76.4344 64.996L80.1004 67.948L80.9404 66.548L77.1724 63.545Z" fill="#D9D9D9"/>
<path d="M183.185 107.234L179.077 107.998L178.966 107.634C180.154 107.228 182.945 106.13 184.075 104.436C185.527 102.258 186.036 100.152 186.036 100.152C186.036 100.152 183.519 101.469 182.55 103.983L180.604 104.345C181.384 103.862 182.107 103.277 182.561 102.596C184.013 100.417 184.522 98.312 184.522 98.312C184.522 98.312 182.005 99.629 181.036 102.143L178.582 102.599C179.6 101.8 180.666 100.758 181.111 99.631C182.073 97.196 182.127 95.03 182.127 95.03C182.127 95.03 179.944 96.847 179.525 99.508L176.827 100.635L165.019 104.323L165.108 102.618C165.108 102.618 165.553 102.351 166.8 101.371C168.047 100.391 169.603 96.324 169.603 96.324C169.603 96.324 163.415 99.233 161.907 102.439C160.399 105.645 158.962 113.572 158.962 113.572C158.962 113.572 144.771 147.721 142.251 157.129C142.251 157.129 137.377 159.014 135.058 162.207C135.058 162.207 140.013 171.303 143.95 172.253C143.95 172.253 155.354 170.081 160.784 156.776C166.214 143.471 168.402 116.598 168.402 116.598L179.801 110.364C179.801 110.364 183.245 109.384 184.432 107.603C185.62 105.822 186.035 104.1 186.035 104.1C186.035 104.1 183.977 105.179 183.185 107.234Z" fill="#FF996A"/>
<path d="M132.414 145.99C132.414 145.99 125.737 144.704 114.309 144.704C102.881 144.704 91.4524 146.847 91.4524 146.847" stroke="#847062" stroke-miterlimit="10" stroke-linecap="round" stroke-linejoin="round"/>
<path d="M120.38 37.562C120.38 37.562 122.219 40.952 122.061 43.276" stroke="#543E2F" stroke-miterlimit="10" stroke-linecap="round" stroke-linejoin="round"/>
<path d="M117.556 34.99C117.556 34.99 110.094 37.419 105.987 43.276" stroke="#543E2F" stroke-miterlimit="10" stroke-linecap="round" stroke-linejoin="round"/>
<path d="M82.9514 38.776C82.9514 38.776 81.7374 41.49 81.6654 42.49C81.6654 42.49 77.6774 46.204 77.1714 48.347" stroke="#543E2F" stroke-miterlimit="10" stroke-linecap="round" stroke-linejoin="round"/>
<path d="M67.9514 48.847C68.2374 49.061 72.1814 52.049 76.2274 49.531" stroke="#543E2F" stroke-miterlimit="10" stroke-linecap="round" stroke-linejoin="round"/>
<path d="M87.8724 37.562C87.8724 37.562 97.1294 29.026 112.451 33.526" stroke="#543E2F" stroke-miterlimit="10" stroke-linecap="round" stroke-linejoin="round"/>
<path d="M89.7374 55.191C89.7374 55.191 93.7134 56.794 102.213 55.191C110.713 53.588 118.452 44.883 118.452 44.883" stroke="#543E2F" stroke-miterlimit="10" stroke-linecap="round" stroke-linejoin="round"/>
<path d="M86.3044 101.856C86.3044 101.856 97.9284 106.704 109.833 105.99C121.738 105.276 123.221 103.133 123.221 103.133" stroke="#847062" stroke-miterlimit="10" stroke-linecap="round" stroke-linejoin="round"/>
</g>
<defs>
<filter id="filter0_d_314_3" x="311.008" y="49.823" width="110.758" height="89.5013" filterUnits="userSpaceOnUse" color-interpolation-filters="sRGB">
<feFlood flood-opacity="0" result="BackgroundImageFix"/>
<feColorMatrix in="SourceAlpha" type="matrix" values="0 0 0 0 0 0 0 0 0 0 0 0 0 0 0 0 0 0 127 0" result="hardAlpha"/>
<feOffset dy="4"/>
<feGaussianBlur stdDeviation="2"/>
<feComposite in2="hardAlpha" operator="out"/>
<feColorMatrix type="matrix" values="0 0 0 0 0 0 0 0 0 0 0 0 0 0 0 0 0 0 0.25 0"/>
<feBlend mode="normal" in2="BackgroundImageFix" result="effect1_dropShadow_314_3"/>
<feBlend mode="normal" in="SourceGraphic" in2="effect1_dropShadow_314_3" result="shape"/>
</filter>
<filter id="filter1_d_314_3" x="144.061" y="0" width="124.79" height="57.8225" filterUnits="userSpaceOnUse" color-interpolation-filters="sRGB">
<feFlood flood-opacity="0" result="BackgroundImageFix"/>
<feColorMatrix in="SourceAlpha" type="matrix" values="0 0 0 0 0 0 0 0 0 0 0 0 0 0 0 0 0 0 127 0" result="hardAlpha"/>
<feOffset dy="4"/>
<feGaussianBlur stdDeviation="2"/>
<feComposite in2="hardAlpha" operator="out"/>
<feColorMatrix type="matrix" values="0 0 0 0 0 0 0 0 0 0 0 0 0 0 0 0 0 0 0.25 0"/>
<feBlend mode="normal" in2="BackgroundImageFix" result="effect1_dropShadow_314_3"/>
<feBlend mode="normal" in="SourceGraphic" in2="effect1_dropShadow_314_3" result="shape"/>
</filter>
<filter id="filter2_d_314_3" x="10.7434" y="17.536" width="179.293" height="173.396" filterUnits="userSpaceOnUse" color-interpolation-filters="sRGB">
<feFlood flood-opacity="0" result="BackgroundImageFix"/>
<feColorMatrix in="SourceAlpha" type="matrix" values="0 0 0 0 0 0 0 0 0 0 0 0 0 0 0 0 0 0 127 0" result="hardAlpha"/>
<feOffset dy="4"/>
<feGaussianBlur stdDeviation="2"/>
<feComposite in2="hardAlpha" operator="out"/>
<feColorMatrix type="matrix" values="0 0 0 0 0 0 0 0 0 0 0 0 0 0 0 0 0 0 0.25 0"/>
<feBlend mode="normal" in2="BackgroundImageFix" result="effect1_dropShadow_314_3"/>
<feBlend mode="normal" in="SourceGraphic" in2="effect1_dropShadow_314_3" result="shape"/>
</filter>
</defs>
</svg>
